HIERARCHY
ROOT pelvis
{
  OFFSET 0 100 0
  CHANNELS 6 Xposition Yposition Zposition Zrotation Xrotation Yrotation
  JOINT pelvis_right_femur
  {
    OFFSET -10.78128 -3.44521 -0.5502486
    CHANNELS 3 Zrotation Xrotation Yrotation
    JOINT right_femur_tibia
    {
      OFFSET -0.8047443 -44.0398 -0.1307829
      CHANNELS 3 Zrotation Xrotation Yrotation
      JOINT right_tibia_foot
      {
        OFFSET 3.006224 -47.83518 -5
        CHANNELS 3 Zrotation Xrotation Yrotation
        End Site
        {
          OFFSET 0 -5 15
        }
      }
    }
  }
  JOINT pelvis_left_femur
  {
    OFFSET 10.78128 -3.44521 -0.5502486
    CHANNELS 3 Zrotation Xrotation Yrotation
    JOINT left_femur_tibia
    {
      OFFSET 0.8047443 -44.0398 -0.1307829
      CHANNELS 3 Zrotation Xrotation Yrotation
      JOINT left_tibia_foot
      {
        OFFSET -4.370144 -48.10324 -4.275266
        CHANNELS 3 Zrotation Xrotation Yrotation
        End Site
        {
          OFFSET 0 -5 15
        }
      }
    }
  }
  JOINT pelvis_spine1
  {
    OFFSET 0 6.468898 -3.129235
    CHANNELS 3 Zrotation Xrotation Yrotation
    JOINT spine1
    {
      OFFSET 0 23.15396 4.99043
      CHANNELS 3 Zrotation Xrotation Yrotation
      JOINT spine2
      {
        OFFSET 0 20.79997 -5.064912
        CHANNELS 3 Zrotation Xrotation Yrotation
        JOINT neck
        {
          OFFSET 0 14.38658 9.616178
          CHANNELS 3 Zrotation Xrotation Yrotation
          End Site
          {
            OFFSET 0 20 0
          }
        }
      }
      JOINT right_manubrium
      {
        OFFSET -5.722621 16.35077 3.967754
        CHANNELS 3 Zrotation Xrotation Yrotation
        JOINT right_clavicle
        {
          OFFSET -13.16364 1.694482 -4.693211
          CHANNELS 3 Zrotation Xrotation Yrotation
          JOINT right_humerus
          {
            OFFSET -28.5034 -0.3100689 -2.792744
            CHANNELS 3 Zrotation Xrotation Yrotation
            JOINT right_radius
            {
              OFFSET -25.15693 0.02248979 -1.271978
              CHANNELS 3 Zrotation Xrotation Yrotation
              End Site
              {
                OFFSET -15 0 0
              }
            }
          }
        }
      }
      JOINT left_manubrium
      {
        OFFSET 5.722621 16.35077 3.967754
        CHANNELS 3 Zrotation Xrotation Yrotation
        JOINT left_clavicle
        {
          OFFSET 13.16364 1.694482 -4.693211
          CHANNELS 3 Zrotation Xrotation Yrotation
          JOINT left_humerus
          {
            OFFSET 29.39168 -1.063119 -2.237045
            CHANNELS 3 Zrotation Xrotation Yrotation
            JOINT left_radius
            {
              OFFSET 24.59957 -0.9528479 0.9047498
              CHANNELS 3 Zrotation Xrotation Yrotation
              End Site
              {
                OFFSET 15 -0 -0
              }
            }
          }
        }
      }
    }
  }
}
MOTION
Frames: 19
Frame Time: 0.0416666666667
0 103.5113 0 2.554076 1.006644 0.09634009 -2.262448 -8.152847 8.887167 -0 31.07059 -0 -7.913887 -15.83602 -1.832955 -6.753123 8.572648 -17.38682 -0 4.826373 -0 9.270181 -15.88622 22.0377 -5.108873 -7.422007 4.894323 3.117723 11.46557 -7.660343 -0.3884772 21.09235 8.091807 2.893507 -26.2521 8.771906 8.580555 -18.51312 17.16391 85.17282 36.05234 -19.83737 -0 0 11.91428 -23.38665 11.80142 18.95571 8.122862 -23.01345 3.498477 -97.4294 34.03682 23.85936 0 0 -20.79112 -5.646121 12.12442 21.32009
0.5673783 103.3427 1.014623 2.213883 0.6889036 0.241282 -1.4505 -11.8699 8.968516 -0 38.46984 -0 -7.551841 -14.23152 -2.867266 -6.669655 9.692187 -16.99532 -0 4.636211 -0 9.035208 -16.66086 21.60845 -5.1435 -6.54902 4.234803 3.200908 11.49163 -7.998186 -0.5809091 20.66093 8.571351 3.353634 -26.41319 8.682426 8.466513 -18.48527 16.74497 84.77713 35.94491 -19.63851 -0 0 12.08872 -23.78557 12.19326 19.1262 7.997666 -22.68818 3.181552 -97.18509 33.74741 23.90281 0 0 -20.51915 -5.639434 11.97645 21.46779
1.015302 103.1774 2.22125 1.730957 0.4423068 0.1187585 -0.4315053 -15.87989 8.36437 -0 44.35438 -0 -7.366464 -12.83195 -4.022689 -6.407782 10.85623 -16.48288 -0 4.445444 -0 8.741534 -17.49624 21.24053 -5.105166 -5.662164 3.57106 3.412755 11.42226 -8.400963 -0.6762551 20.12617 9.022499 3.847574 -26.46401 8.635309 8.502424 -18.47876 16.29682 84.36565 35.82566 -19.48142 -0 0 12.19439 -24.21987 12.61412 19.27774 7.706968 -22.42889 2.789374 -96.83555 33.49294 23.92418 0 0 -20.09986 -5.650175 11.79834 21.58525
1.356768 103.0748 3.498653 1.165949 0.4503979 -0.2837259 0.6043496 -20.02502 7.362158 -0 46.50608 -0 -7.293755 -12.3571 -4.758086 -6.08 11.79345 -15.84949 -0 4.286401 -0 8.354543 -18.34579 20.88304 -5.106881 -4.74656 3.038658 3.679964 11.24971 -8.797756 -0.8101375 19.51686 9.508697 4.358734 -26.42831 8.53993 8.53379 -18.4179 15.82975 84.06004 35.69268 -19.44364 -0 0 12.24917 -24.69146 13.06353 19.42879 7.504498 -22.26686 2.345578 -96.3802 33.28887 23.79393 0 0 -19.71026 -5.653766 11.61271 21.67079
1.693014 103.0317 5.09308 0.7103915 0.7229349 -0.783932 1.848511 -24.01222 6.051698 -0 45.5405 -0 -7.187011 -11.62131 -4.90151 -5.894559 12.60488 -15.17623 -0 4.241991 -0 7.857482 -19.22089 20.46596 -5.170282 -4.039357 2.763736 3.950375 10.8858 -9.059638 -0.9793051 18.8779 9.99804 4.878935 -26.22525 8.351611 8.519601 -18.41799 15.41992 83.73562 35.57733 -19.42632 -0 0 12.33189 -25.20059 13.55612 19.61101 7.372903 -22.0727 1.87961 -96.02361 33.07297 23.58833 0 0 -19.49816 -5.647872 11.43395 21.68474
2.021342 102.7449 6.999935 0.5019083 1.15269 -1.133787 2.917467 -27.95087 5.32654 -0 41.2136 -0 -6.969495 -10.5462 -4.355878 -5.967012 13.36946 -14.54659 -0 4.359583 -0 7.34176 -20.24001 19.95918 -5.289313 -3.382248 2.5347 4.230342 10.5584 -9.322522 -1.017505 18.35546 10.45083 5.380211 -26.28574 8.389623 8.258084 -18.17178 14.98702 83.81196 35.52681 -19.7264 -0 0 12.30747 -25.71742 14.13221 19.85255 7.306647 -21.93109 1.224384 -95.70096 32.86205 23.22918 0 0 -19.53324 -5.630723 11.26723 21.58303
2.34926 102.1237 9.120065 0.4588224 1.742031 -1.270166 3.457483 -31.39816 5.045353 -0 34.7272 -0 -6.777662 -9.297176 -3.560292 -6.197204 14.01399 -13.97553 -0 4.731895 -0 6.824903 -21.40075 19.37658 -5.401726 -2.812962 2.486572 4.368887 10.25343 -9.425469 -1.007944 17.98211 10.84003 5.835348 -26.4287 8.492198 7.78754 -17.73702 14.5174 84.22319 35.50066 -20.32047 -0 0 11.98172 -26.02223 14.73644 19.94079 7.289733 -21.94347 0.6596053 -95.2169 32.59535 22.6193 0 0 -19.91752 -5.52543 11.14222 21.3437
2.648256 101.2935 11.71228 0.4536699 2.242618 -1.085473 4.073827 -34.42443 4.790087 -0 28.43459 -0 -6.728406 -7.799076 -3.087459 -6.531805 14.7726 -13.46469 -0 5.487989 -0 6.225526 -22.555 18.63632 -5.399302 -2.312444 2.454852 4.514351 10.03029 -9.552392 -1.048537 17.72797 11.15443 6.212237 -26.64271 8.51749 7.282023 -17.12539 13.92742 84.87146 35.42224 -21.25846 -0 0 11.30993 -26.00422 15.32434 19.76691 7.246916 -22.01191 0.190967 -94.62219 32.25172 21.9188 0 0 -20.48518 -5.328231 11.04503 21.00651
2.869522 100.3413 14.81427 0.485549 2.697397 -0.5246644 4.364002 -36.65432 4.506857 -0 23.05152 -0 -6.850337 -6.548937 -2.671561 -6.691829 15.68448 -13.01114 -0 6.713061 -0 5.343022 -23.45535 17.53982 -5.225924 -1.980106 2.428372 4.637526 9.834743 -9.702509 -1.221503 17.71194 11.42775 6.48565 -26.85535 8.435679 6.792574 -16.4407 13.29636 85.64261 35.28838 -22.37176 -0 0 10.4336 -25.70866 15.87673 19.37899 7.078539 -22.1426 -0.2467589 -93.99645 31.85855 21.27137 0 0 -20.96254 -5.100311 10.9423 20.6689
3.073773 99.55478 18.39942 0.3467387 3.120704 0.3933185 4.607275 -37.95626 4.302385 -0 19.78871 -0 -7.268229 -5.695346 -2.505149 -6.497673 16.65349 -12.51492 -0 8.640682 -0 4.026884 -23.7464 16.02505 -4.834695 -1.63956 2.308315 4.794523 9.621564 -9.905774 -1.263211 17.69329 11.62403 6.756855 -27.21859 8.464012 6.489981 -15.81704 12.8089 86.36657 35.13083 -23.44419 -0 0 9.473659 -25.13084 16.39751 18.77587 6.743196 -22.29004 -0.5527733 -93.50006 31.40262 20.84462 0 0 -21.19585 -4.895982 10.80176 20.37733
3.218157 99.05451 22.56879 -0.121872 3.522072 1.490904 5.093914 -37.82231 4.315957 -0 19.32179 -0 -8.036143 -5.001294 -2.736979 -5.819881 17.2365 -12.08513 -0 11.74644 -0 2.258349 -22.97362 14.17899 -4.060696 -1.488666 2.029363 4.966973 9.404492 -10.14723 -1.30841 17.65321 11.6618 6.907901 -27.60019 8.354981 6.286599 -15.18444 12.40302 87.10358 34.94116 -24.47221 -0 0 8.46309 -24.27429 16.86533 17.99177 6.267131 -22.27994 -0.7663907 -93.15518 30.82703 20.70926 0 0 -21.26694 -4.630043 10.66335 20.08984
3.333726 98.92404 27.50793 -0.7199278 3.851186 2.709852 5.66447 -36.11251 4.447817 -0 20.72512 -0 -8.965152 -4.488719 -3.308449 -4.872103 17.31328 -11.71956 -0 16.60747 -0 0.1308182 -20.60812 12.1308 -2.983115 -1.730551 1.77659 5.084988 9.159503 -10.3103 -1.384331 17.5767 11.59012 6.926133 -27.92216 8.140222 6.082147 -14.44465 11.97989 87.88812 34.69235 -25.45217 -0 0 7.514071 -23.16183 17.27101 17.0564 5.719288 -22.07329 -0.7865471 -93.05736 30.14103 20.9116 0 0 -21.16375 -4.344749 10.52025 19.8388
3.465007 99.06446 32.98039 -1.489922 3.720065 3.791665 6.550662 -33.98489 4.902967 -0 22.20676 -0 -9.875158 -4.397106 -4.023148 -3.704661 16.8025 -11.488 -0 23.00467 -0 -2.283087 -16.68035 10.17395 -1.549216 -2.011593 1.631346 5.169626 9.066935 -10.33057 -1.531299 17.59395 11.41386 6.786907 -28.00286 7.777699 5.733833 -13.75513 11.67176 88.56575 34.45497 -26.09013 -0 0 6.685867 -21.80627 17.60692 15.98453 5.317498 -21.66105 -0.6689711 -93.10798 29.3482 21.19309 0 0 -21.12866 -4.000211 10.37629 19.54404
3.662314 99.70806 38.83636 -2.141046 3.114426 3.984735 7.346674 -30.39886 5.250896 -0 23.20697 -0 -10.68551 -5.097962 -4.619127 -3.497188 14.97694 -10.72364 -0 32.29504 -0 -4.31032 -11.14174 8.779751 -0.1731874 -2.13404 1.890774 5.065277 9.050711 -10.012 -1.659879 17.76434 11.18487 6.60118 -27.99447 7.419054 5.469942 -13.75039 11.76987 88.57265 34.34047 -25.6373 -0 0 6.333076 -20.43885 17.78099 14.97429 4.790282 -21.06818 -0.5843135 -93.15814 28.47555 21.58534 0 0 -21.08366 -3.601584 10.25067 19.2125
3.895268 100.458 44.65169 -2.314612 1.887845 3.302156 7.806804 -25.55063 5.264125 -0 23.18636 -0 -11.36582 -6.534034 -4.887881 -3.331003 11.3929 -10.22048 -0 43.03208 -0 -5.567125 -5.554789 8.166599 0.6786018 -1.863166 2.620414 4.864546 9.309502 -9.511128 -1.857747 18.18154 10.92264 6.317799 -27.82059 7.021441 5.386206 -13.94193 12.02331 88.12564 34.24457 -24.65076 -0 0 6.092682 -19.26045 17.75154 14.10401 4.266582 -20.85856 -0.5081697 -92.83945 27.64528 21.66881 0 0 -21.03971 -3.137804 10.13527 18.8378
4.12301 101.3265 50.01564 -2.06358 0.2953772 2.685275 7.555539 -19.79251 4.812456 -0 21.97606 -0 -11.76805 -8.25009 -4.909236 -3.031842 5.739113 -9.493401 -0 52.28851 -0 -6.356392 -1.388122 8.53352 0.9209672 -0.949727 3.748184 4.656208 9.682548 -8.867628 -1.978587 18.39135 10.5592 6.00385 -27.68408 6.572554 5.522867 -14.36049 12.23699 87.1944 34.13801 -23.02566 -0 0 6.09175 -18.34859 17.51146 13.41734 3.834447 -20.88769 -0.327741 -92.26231 26.79944 21.51091 0 0 -21.13619 -2.580858 10.03102 18.38433
4.341179 102.49 55.21154 -1.350462 -1.158753 2.391664 6.60192 -13.6833 4.139176 -0 19.68774 -0 -11.75642 -9.790982 -4.602644 -2.610135 -0.4430843 -8.137615 -0 59.58343 -0 -6.952316 1.317078 9.887369 0.467343 -0.06522897 4.894951 4.408139 9.940768 -8.321597 -2.082472 18.84427 10.05705 5.638871 -27.44979 6.002345 5.682007 -15.19181 12.7228 85.67459 34.16168 -20.53869 -0 0 6.664071 -18.1073 17.20737 13.18717 3.677559 -20.91245 -0.4850518 -91.53434 26.03839 21.22105 0 0 -21.26748 -2.101975 9.864769 17.93294
4.5571 103.7356 60.27182 -0.4281463 -2.51719 2.042315 5.398824 -7.409749 3.374336 -0 16.74806 -0 -11.33439 -11.02324 -4.025746 -2.284172 -7.489102 -6.830845 -0 61.96583 -0 -6.489571 1.526895 11.37768 -0.2903973 0.6909089 5.997194 3.993743 10.04052 -7.641454 -2.163596 19.47701 9.554458 5.230347 -27.10996 5.531239 5.65708 -16.27644 13.2009 83.78912 34.10327 -17.39306 -0 0 7.944584 -18.44528 16.7884 13.38322 3.780803 -21.0342 -0.6036466 -90.79245 25.37653 20.88473 0 0 -21.43967 -1.737372 9.658615 17.45264
4.810982 104.5482 65.17231 0.196704 -3.250928 1.774 4.423655 -1.82119 2.63074 -0 13.54377 -0 -10.67968 -12.21339 -3.295896 -1.680519 -13.85402 -5.489722 -0 59.01614 -0 -5.707239 0.9085561 12.93466 -0.7400036 1.140875 7.041379 3.311926 10.16848 -6.600701 -2.074565 20.04134 8.969566 4.831792 -26.79187 5.173592 5.201217 -17.21265 13.6414 81.90357 33.88596 -14.05354 -0 0 9.802073 -19.15024 16.32162 13.90812 3.976704 -20.98133 -0.3966893 -90.30982 24.67719 20.79262 0 0 -21.59972 -1.419989 9.415317 16.99076
